/* XPM */
static char *BBCEA3_xpm[]={
"90 44 24 1",
"      c #D4D0C8",
"0     c #A09D97",
"1     c #C0BCB5",
"2     c #060605",
"3     c #504E4B",
"4     c #999690",
"5     c #050505",
"6     c #9A9791",
"7     c #B5B1AB",
"8     c #000000",
"9     c #CDC9C2",
"a     c #BAB7B0",
"b     c #3A3937",
"c     c #565552",
"d     c #0F0F0E",
"e     c #92908A",
"f     c #CECAC3",
"g     c #0B0B0A",
"h     c #C1BDB6",
"i     c #7F7D78",
"j     c #333230",
"k     c #343331",
"l     c #7E7C77",
"m     c #42403E",
"                         423                                                              ",
"                          453                                                             ",
"                           623                                                            ",
"                            453                                                           ",
"                             653                                                          ",
"                              453                                                         ",
"                               623                                                        ",
"                                  7                                                       ",
"                                   7                     88                               ",
"                8888            88                       88                               ",
"               88  88           88                                                        ",
"               88  88  88  88  888888   88888   8888   8888    88888    88888             ",
"               88  88  88  88   88     88  88  88  88    88    88  88  88  88             ",
"               88  88  88  88   88     88  88  88  88    88    88  88  88  88             ",
"               88  88  88  88   88     88  88  88  88    88    88  88  88  88             ",
"               88  88  88  88   88     88  88  88  88    88    88  88  88  88             ",
"               88  88  88  88   88     88  88  88  88    88    88  88  88  88             ",
"                8888    88888    8888   88888   8888   888888  88  88   88888             ",
"                                           88                              88             ",
"                                           88                88            88             ",
"    8888                               88888        88       88        88888              ",
"   88  88                                           88                                    ",
"   88  88   8888   88888   88888    8888    8888   888888  8888     8888   88888    88888 ",
"   88      88  88  88  88  88  88  88  88  88  88   88       88    88  88  88  88  88     ",
"   88      88  88  88  88  88  88  88  88  88       88       88    88  88  88  88  88     ",
"   88      88  88  88  88  88  88  888888  88       88       88    88  88  88  88   8888  ",
"   88  88  88  88  88  88  88  88  88      88       88       88    88  88  88  88      88 ",
"   88  88  88  88  88  88  88  88  88      88  88   88       88    88  88  88  88      88 ",
"    8888    8888   88  88  88  88   8888    8888     8888  888888   8888   88  88  88888  ",
"                                                                                          ",
"                                                            653                           ",
"                                                             453                          ",
"                                                              453                         ",
"                                                               653   9a                   ",
"                                                                453 9bc                   ",
"                                                                 623b8d                   ",
"                                                                  e88886                  ",
"                                                                 fb88883                  ",
"                                                                9b88888g9                 ",
"                                                                hij888884                 ",
"                                                                   hik883                 ",
"                                                                      1lm9                ",
"                                                                                          ",
"                                                                                          "};
