/* XPM */
static char *BBCEA2_xpm[]={
"90 43 26 1",
"      c #D4D0C8",
"0     c #A09D97",
"1     c #504E4B",
"2     c #050505",
"3     c #C1BDB6",
"4     c #060605",
"5     c #999690",
"6     c #9A9791",
"7     c #4F4D4B",
"8     c #B5B1AB",
"9     c #2A2927",
"a     c #C6C3BB",
"b     c #000000",
"c     c #BAB7B0",
"d     c #CDC9C2",
"e     c #565552",
"f     c #3A3937",
"g     c #0F0F0E",
"h     c #3B3A38",
"i     c #92908A",
"j     c #CECAC3",
"k     c #0A0A09",
"l     c #343331",
"m     c #7F7D78",
"n     c #7E7C77",
"o     c #42403E",
"                                                               146                        ",
"                                                              146                         ",
"                                                             745                          ",
"                                                            145                           ",
"                                                           896                            ",
"                                                            a                             ",
"                                                         bb                               ",
"                bbbb                                     bb                               ",
"                 bb                                                                       ",
"                 bb    bbbbb    bbbb    bbbb   bbbbbb  bbbb    bbbbb    bbbbb             ",
"                 bb    bb  bb  bb  bb  bb  bb  bb b bb   bb    bb  bb  bb  bb             ",
"                 bb    bb  bb  bb      bb  bb  bb b bb   bb    bb  bb  bb  bb             ",
"                 bb    bb  bb  bb      bb  bb  bb b bb   bb    bb  bb  bb  bb             ",
"                 bb    bb  bb  bb      bb  bb  bb b bb   bb    bb  bb  bb  bb             ",
"                 bb    bb  bb  bb  bb  bb  bb  bb b bb   bb    bb  bb  bb  bb             ",
"                bbbb   bb  bb   bbbb    bbbb   bb   bb bbbbbb  bb  bb   bbbbb             ",
"                                                                           bb             ",
"                                              8              bb            bb             ",
"    bbbb                                            bb       bb        bbbbb              ",
"   bb  bb                                           bb                                    ",
"   bb  bb   bbbb   bbbbb   bbbbb    bbbb    bbbb   bbbbbb  bbbb     bbbb   bbbbb    bbbbb ",
"   bb      bb  bb  bb  bb  bb  bb  bb  bb  bb  bb   bb       bb    bb  bb  bb  bb  bb     ",
"   bb      bb  bb  bb  bb  bb  bb  bb  bb  bb       bb       bb    bb  bb  bb  bb  bb     ",
"   bb      bb  bb  bb  bb  bb  bb  bbbbbb  bb       bb       bb    bb  bb  bb  bb   bbbb  ",
"   bb  bb  bb  bb  bb  bb  bb  bb  bb      bb       bb       bb    bb  bb  bb  bb      bb ",
"   bb  bb  bb  bb  bb  bb  bb  bb  bb      bb  bb   bb       bb    bb  bb  bb  bb      bb ",
"    bbbb    bbbb   bb  bb  bb  bb   bbbb    bbbb     bbbb  bbbbbb   bbbb   bb  bb  bbbbb  ",
"                                                                                          ",
"                        145                                                               ",
"                       145                                                                ",
"                      126                                                                 ",
"                     146                                                                  ",
"               cd   125                                                                   ",
"               efd 125                                                                    ",
"               gbh126                                                                     ",
"              5bbbbi                                                                      ",
"              1bbbbhj                                                                     ",
"             dkbbbbbfj                                                                    ",
"             6bbbbblm3                                                                    ",
"             1bbln3                                                                       ",
"            don3                                                                          ",
"                                                                                          ",
"                                                                                          "};
