/* XPM */
static char *BBCEA1_xpm[]={
"97 10 24 1",
"      c #D4D0C8",
"0     c #C1BDB6",
"1     c #6A6864",
"2     c #C7C3BB",
"3     c #BAB7B0",
"4     c #000000",
"5     c #0A0A09",
"6     c #C8C4BC",
"7     c #0B0B0A",
"8     c #5D5B58",
"9     c #6B6965",
"a     c #5E5C59",
"b     c #050505",
"c     c #C0BCB5",
"d     c #333230",
"e     c #343331",
"f     c #2C2B2A",
"g     c #252423",
"h     c #93908B",
"i     c #92908A",
"j     c #161514",
"k     c #8D8A85",
"l     c #86837E",
"m     c #CDC9C2",
"                                                                                                 ",
"                                                                                        012      ",
"                                                                                        34516    ",
"                                                                                        3444780  ",
"6111111111111111111111111111111111111111111111111111111111111111111111191911111111111111a44444bac",
"0deeeedeeeeeeeedeedeeeeeededeeedeeddeddeeeeeeddeeeddeeddeeeeeeeeeeddeedeeeeeeeeeedeedeeef444444gh",
"                                                                                        34444gi  ",
"                                                                                        344jk    ",
"                                                                                        3jl      ",
"                                                                                        m        "};
