/* XPM */
static char *OUTBBCD1_xpm[]={
"20 20 129 2",
"      c #FEFEFE",
" 0  s bg c #FFFFFF",
" 1    c #888888",
" 2    c #C1C1C1",
" 3    c #828282",
" 4    c #C8C8C8",
" 5    c #313131",
" 6    c #9A9A9A",
" 7    c #9D9D9D",
" 8    c #636363",
" 9    c #646464",
" a    c #DADADA",
" b    c #424242",
" c    c #A8A8A8",
" d    c #B9B9B9",
" e    c #757575",
" f    c #111111",
" g    c #000000",
" h    c #414141",
" i    c #939393",
" j    c #E1E1E1",
" k    c #8F8F8F",
" l    c #C4C4C4",
" m    c #868686",
" n    c #101010",
" o    c #353535",
" p    c #D1D1D1",
" q    c #FBFBFB",
" r    c #6D6D6D",
" s    c #C6C6C6",
" t    c #565656",
" u    c #AAAAAA",
" v    c #3B3B3B",
" w    c #B7B7B7",
" x    c #FDFDFD",
" y    c #222222",
" z    c #ABABAB",
" A    c #B8B8B8",
" B    c #383838",
" C    c #797979",
" D    c #E8E8E8",
" E    c #898989",
" F    c #8E8E8E",
" G    c #E3E3E3",
" H    c #171717",
" I    c #444444",
" J    c #505050",
" K    c #181818",
" L    c #500E0E",
" M    c #010D00",
" N    c #3A3A3A",
" O    c #4A4A4A",
" P    c #070707",
" Q    c #CECECE",
" R    c #A1A1A1",
" S    c #2B2B2B",
" T    c #601111",
" U    c #FF2E2E",
" V    c #D02626",
" W    c #A6A6A6",
" X    c #EDEDED",
" Y    c #9E9E9E",
" Z    c #011B00",
" &    c #701414",
"0     c #DCDCDC",
"00    c #BABABA",
"01    c #5C5C5C",
"02    c #045100",
"03    c #08AF00",
"04    c #079400",
"05    c #8B8B8B",
"06    c #D8D8D8",
"07    c #C3C3C3",
"08    c #6B6B6B",
"09    c #454545",
"0a    c #161616",
"0b    c #0AD700",
"0c    c #068700",
"0d    c #323232",
"0e    c #303030",
"0f    c #929292",
"0g    c #EBEBEB",
"0h    c #D2D2D2",
"0i    c #AEAEAE",
"0j    c #3D3D3D",
"0k    c #022800",
"0l    c #09CA00",
"0m    c #067900",
"0n    c #056C00",
"0o    c #F0F0F0",
"0p    c #656565",
"0q    c #252525",
"0r    c #0E0E0E",
"0s    c #BDBDBD",
"0t    c #BBBBBB",
"0u    c #D4D4D4",
"0v    c #3C3C3C",
"0w    c #838383",
"0x    c #ECECEC",
"0y    c #FCFCFC",
"0z    c #7A7A7A",
"0A    c #4F4F4F",
"0B    c #1B1B1B",
"0C    c #010101",
"0D    c #030303",
"0E    c #3E3E3E",
"0F    c #4B4B4B",
"0G    c #D6D6D6",
"0H    c #050505",
"0I    c #737373",
"0J    c #C7C7C7",
"0K    c #333333",
"0L    c #959595",
"0M    c #282828",
"0N    c #5A5A5A",
"0O    c #787878",
"0P    c #EAEAEA",
"0Q    c #4D4D4D",
"0R    c #CACACA",
"0S    c #B1B1B1",
"0T    c #616161",
"0U    c #B2B2B2",
"0V    c #949494",
"0W    c #F1F1F1",
"0X    c #AFAFAF",
"0Y    c #D7D7D7",
"0Z    c #E9E9E9",
"0&    c #BEBEBE",
"1     c #F3F3F3",
"     0 0 0 0 1 2 0 0 0 0 3 4 0 0 0 0    ",
"   0 0 0 0 0 5 6 7 8 9 a b c 0 0 0 0 0  ",
"   0 0 0 0 0 d e f g g h i j 0 0 0 0 0  ",
"   0 k l 0 0 m n g g g g o p 0 q r s 0  ",
"   0 t u 0 0 v g g g g g g w 0 x y z 0  ",
"   0 4 8 A 0 2 B g g g g C D   E F G 0  ",
"   0 0 B H I J K g L M g N O b P Q 0 0  ",
"   0 0 2 R S g g T U V g g g r W X 0 0  ",
"   0 0 0 Y H g Z U U U & g g N0  0 0 0  ",
"   E00  01 g0203 T U V0403 M g A  0506  ",
"  0708090a020b0b03 L0c0b0b030d0e090f0g  ",
"   00h0i0j0k0l0b030m0n0b0b0c O e0i0o 0 0",
"   0 0 00p0q0k0m0c0b0l0m0n g0r0s 0 0 0  ",
"   0 0 00p g g Z0l0b0b0m g g g0t 0 0 0  ",
"   0 0 00u0v g g0k0l0c g g g0w0x 0 0 0  ",
"   00y0z0A0B0C g g Z g g g0D0E0F0G   0  ",
"   00w0H0I0J0K g g g g g g0L l0M y 4 0  ",
"   00N0O0P 00Q g g g g g0D 2 00R H0S 0  ",
" 0 00T0U 0 0 a09 g g g g0V0W 0 00d0X 0  ",
"    0Y0Z 0 0 0060&0s0s0s1  0 0 x0R0g    "};
