/* XPM */
static char *OUTBBSD1_xpm[]={
"20 20 121 2",
"      c #FEFEFE",
" 0 s bg c #FFFFFF",
" 1    c #888888",
" 2    c #C1C1C1",
" 3    c #828282",
" 4    c #C8C8C8",
" 5    c #313131",
" 6    c #9A9A9A",
" 7    c #9D9D9D",
" 8    c #636363",
" 9    c #646464",
" a    c #DADADA",
" b    c #424242",
" c    c #A8A8A8",
" d    c #B9B9B9",
" e    c #757575",
" f    c #111111",
" g    c #000000",
" h    c #414141",
" i    c #939393",
" j    c #E1E1E1",
" k    c #8F8F8F",
" l    c #C4C4C4",
" m    c #868686",
" n    c #101010",
" o    c #353535",
" p    c #D1D1D1",
" q    c #FBFBFB",
" r    c #6D6D6D",
" s    c #C6C6C6",
" t    c #565656",
" u    c #AAAAAA",
" v    c #3B3B3B",
" w    c #B7B7B7",
" x    c #FDFDFD",
" y    c #222222",
" z    c #ABABAB",
" A    c #B8B8B8",
" B    c #383838",
" C    c #797979",
" D    c #E8E8E8",
" E    c #898989",
" F    c #8E8E8E",
" G    c #E3E3E3",
" H    c #171717",
" I    c #444444",
" J    c #505050",
" K    c #181818",
" L    c #026200",
" M    c #000E00",
" N    c #3A3A3A",
" O    c #4A4A4A",
" P    c #070707",
" Q    c #CECECE",
" R    c #A1A1A1",
" S    c #2B2B2B",
" T    c #038B00",
" U    c #05DE00",
" V    c #04B500",
" W    c #A6A6A6",
" X    c #EDEDED",
" Y    c #9E9E9E",
" Z    c #DCDCDC",
" &    c #BABABA",
"0     c #5C5C5C",
"00    c #8B8B8B",
"01    c #D8D8D8",
"02    c #C3C3C3",
"03    c #6B6B6B",
"04    c #454545",
"05    c #161616",
"06    c #037D00",
"07    c #323232",
"08    c #303030",
"09    c #929292",
"0a    c #EBEBEB",
"0b    c #D2D2D2",
"0c    c #AEAEAE",
"0d    c #3D3D3D",
"0e    c #025400",
"0f    c #F0F0F0",
"0g    c #656565",
"0h    c #252525",
"0i    c #0E0E0E",
"0j    c #BDBDBD",
"0k    c #BBBBBB",
"0l    c #D4D4D4",
"0m    c #3C3C3C",
"0n    c #838383",
"0o    c #ECECEC",
"0p    c #FCFCFC",
"0q    c #7A7A7A",
"0r    c #4F4F4F",
"0s    c #1B1B1B",
"0t    c #010101",
"0u    c #012A00",
"0v    c #030303",
"0w    c #3E3E3E",
"0x    c #4B4B4B",
"0y    c #D6D6D6",
"0z    c #050505",
"0A    c #737373",
"0B    c #C7C7C7",
"0C    c #333333",
"0D    c #959595",
"0E    c #282828",
"0F    c #5A5A5A",
"0G    c #787878",
"0H    c #EAEAEA",
"0I    c #4D4D4D",
"0J    c #CACACA",
"0K    c #B1B1B1",
"0L    c #616161",
"0M    c #B2B2B2",
"0N    c #949494",
"0O    c #F1F1F1",
"0P    c #AFAFAF",
"0Q    c #D7D7D7",
"0R    c #E9E9E9",
"0S    c #BEBEBE",
"0T    c #F3F3F3",
"     0 0 0 0 1 2 0 0 0 0 3 4 0 0 0 0    ",
"   0 0 0 0 0 5 6 7 8 9 a b c 0 0 0 0 0  ",
"   0 0 0 0 0 d e f g g h i j 0 0 0 0 0  ",
"   0 k l 0 0 m n g g g g o p 0 q r s 0  ",
"   0 t u 0 0 v g g g g g g w 0 x y z 0  ",
"   0 4 8 A 0 2 B g g g g C D   E F G 0  ",
"   0 0 B H I J K g L M g N O b P Q 0 0  ",
"   0 0 2 R S g g T U V M g g r W X 0 0  ",
"   0 0 0 Y H g T U U U V M g N Z 0 0 0  ",
"   E &  0  g T U U U U U V M g A  0001  ",
"  0203040506 U U U U U U U V070804090a  ",
"   00b0c0d0e U U U U U U U T O e0c0f 0 0",
"   0 0 00g0h0e U U U U U T g0i0j 0 0 0  ",
"   0 0 00g g g0e U U U T g g g0k 0 0 0  ",
"   0 0 00l0m g g0e U T g g g0n0o 0 0 0  ",
"   00p0q0r0s0t g g0u g g g0v0w0x0y   0  ",
"   00n0z0A0B0C g g g g g g0D l0E y 4 0  ",
"   00F0G0H 00I g g g g g0v 2 00J H0K 0  ",
" 0 00L0M 0 0 a04 g g g g0N0O 0 0070P 0  ",
"    0Q0R 0 0 0010S0j0j0j0T 0 0 x0J0a    "};
